HIERARCHY
ROOT Hips
{
	OFFSET -322.846497 91.085190 447.741394
	CHANNELS 6 Xposition Yposition Zposition Xrotation Yrotation Zrotation 
	JOINT RightUpLeg
	{
		OFFSET 0.103462 1.857844 10.548508
		CHANNELS 3 Xrotation Yrotation Zrotation
		JOINT RightLeg
		{
			OFFSET 43.500000 -0.000046 -0.000008
			CHANNELS 3 Xrotation Yrotation Zrotation
			JOINT RightFoot
			{
				OFFSET 42.372192 0.000000 0.000004
				CHANNELS 3 Xrotation Yrotation Zrotation
				JOINT RightToe
				{
					OFFSET 17.299997 -0.000003 0.000018
					CHANNELS 3 Xrotation Yrotation Zrotation
					End Site
					{
						OFFSET 0.000000 0.000000 0.000000
					}
				}
			}
		}
	}
	JOINT LeftUpLeg
	{
		OFFSET 0.103459 1.857830 -10.548515
		CHANNELS 3 Xrotation Yrotation Zrotation
		JOINT LeftLeg
		{
			OFFSET 43.500046 -0.000034 -0.000006
			CHANNELS 3 Xrotation Yrotation Zrotation
			JOINT LeftFoot
			{
				OFFSET 42.372253 0.000015 -0.000006
				CHANNELS 3 Xrotation Yrotation Zrotation
				JOINT LeftToe
				{
					OFFSET 17.299969 -0.000012 0.000010
					CHANNELS 3 Xrotation Yrotation Zrotation
					End Site
					{
						OFFSET 0.000000 0.000000 0.000000
					}
				}
			}
		}
	}
	JOINT Spine
	{
		OFFSET 6.901964 -2.603727 0.000001
		CHANNELS 3 Xrotation Yrotation Zrotation
		JOINT Spine1
		{
			OFFSET 12.588105 -0.000009 0.000006
			CHANNELS 3 Xrotation Yrotation Zrotation
			JOINT Spine2
			{
				OFFSET 12.343197 0.000007 -0.000002
				CHANNELS 3 Xrotation Yrotation Zrotation
				JOINT Neck
				{
					OFFSET 25.832897 0.000002 -0.000001
					CHANNELS 3 Xrotation Yrotation Zrotation
					JOINT Head
					{
						OFFSET 11.766611 0.000000 0.000004
						CHANNELS 3 Xrotation Yrotation Zrotation
						End Site
						{
							OFFSET 0.000000 0.000000 0.000000
						}
					}
				}
				JOINT RightShoulder
				{
					OFFSET 19.745911 -1.480377 6.000110
					CHANNELS 3 Xrotation Yrotation Zrotation
					JOINT RightArm
					{
						OFFSET 11.284108 -0.000006 -0.000027
						CHANNELS 3 Xrotation Yrotation Zrotation
						JOINT RightForeArm
						{
							OFFSET 33.000046 -0.000010 0.000031
							CHANNELS 3 Xrotation Yrotation Zrotation
							JOINT RightHand
							{
								OFFSET 25.200014 0.000009 0.000001
								CHANNELS 3 Xrotation Yrotation Zrotation
								End Site
								{
									OFFSET 0.000000 0.000000 0.000000
								}
							}
						}
					}
				}
				JOINT LeftShoulder
				{
					OFFSET 19.746105 -1.480358 -6.000092
					CHANNELS 3 Xrotation Yrotation Zrotation
					JOINT LeftArm
					{
						OFFSET 11.284138 -0.000011 -0.000001
						CHANNELS 3 Xrotation Yrotation Zrotation
						JOINT LeftForeArm
						{
							OFFSET 33.000088 0.000023 -0.000007
							CHANNELS 3 Xrotation Yrotation Zrotation
							JOINT LeftHand
							{
								OFFSET 25.199776 0.000128 0.000427
								CHANNELS 3 Xrotation Yrotation Zrotation
								End Site
								{
									OFFSET 0.000000 0.000000 0.000000
								}
							}
						}
					}
				}
			}
		}
	}
}
MOTION
Frames: 10
Frame Time: 0.033333
69.355751 85.226562 555.510681 91.229525 -0.637511 -165.537011 172.619904 -8.277896 174.199016 -77.184717 4.830142 -2.258063 65.291827 -5.641066 -17.953154 21.454562 0.003107 0.000019 150.515267 -3.876099 -164.857599 -43.101485 -1.216578 4.603906 84.624623 -4.902363 -8.529680 21.454550 -0.003092 -0.000000 7.170824 -0.073440 -1.364191 4.329930 -0.096240 -2.730138 4.012227 -0.112856 -2.729512 -2.108512 6.532159 3.165623 -12.722173 -4.468522 6.194212 114.337927 -80.085607 64.878020 21.456406 55.239708 44.571123 -85.604462 -3.946499 2.427607 -9.127754 -9.099903 17.644433 -130.655932 85.552170 51.299109 37.769355 -38.673211 -57.224134 -103.130215 0.414439 -2.917391 -10.537110 16.946191 -16.412183 
74.111908 83.520203 554.870483 92.704785 0.567348 -166.664511 167.414330 -9.791000 176.931966 -85.529835 4.611917 -4.660830 68.942611 -1.606224 -13.428407 21.454558 0.003111 0.000016 151.360598 -5.938399 -168.595584 -49.978270 1.113107 6.555747 90.729426 -5.656588 -7.932881 21.454551 -0.003092 0.000000 7.593772 0.340133 -0.915641 5.169104 0.720599 -1.815306 4.851162 0.709488 -1.819625 -2.494480 6.281049 2.997326 -12.685311 -4.706771 6.058654 124.549565 -79.812905 54.641220 23.871427 57.938241 44.993612 -75.176259 -7.479277 2.222107 -11.533295 -18.685442 13.681951 -146.881797 85.234532 34.982999 29.728152 -47.140074 -49.577365 -93.659181 1.969811 -2.605468 -13.733361 18.844999 -20.666990 
78.611572 82.967468 553.890320 92.041635 -0.181927 -167.363008 160.533911 -6.928605 179.508914 -89.295926 4.654526 -8.069837 73.726489 2.047297 -11.471752 21.454551 0.003110 0.000017 152.677350 -4.084200 -168.457627 -53.766870 2.285883 5.275607 95.463423 -4.480216 -8.238016 21.454555 -0.003092 -0.000000 7.590980 0.169489 -0.725089 5.166804 0.371013 -1.441938 4.848819 0.362163 -1.444156 -2.979761 4.857568 3.116489 -12.017666 -3.553247 5.455671 131.598047 -79.761303 47.546101 26.121563 60.088685 46.644158 -61.977608 -9.746724 1.848160 -10.426863 -32.485633 7.433098 -164.618241 85.435244 17.113970 18.979993 -56.130044 -38.623661 -86.726231 4.207621 -2.454849 -13.573671 20.203802 -19.948420 
82.986938 83.460220 553.108704 91.617412 -0.533414 -167.867800 154.263921 -4.256393 -178.556376 -88.539831 4.779018 -11.355559 76.470648 5.170790 -9.677587 21.454568 0.003109 0.000016 156.224663 -3.088805 -164.886600 -53.151371 0.463236 2.879596 97.922523 -2.649130 -8.208316 21.454555 -0.003092 0.000000 7.594516 0.016439 -0.439443 5.175987 0.052433 -0.877712 4.857932 0.046996 -0.878015 -2.670293 4.370160 2.810768 -11.433438 -3.960828 5.121078 133.096208 -79.539732 46.053230 30.450640 58.373522 51.932691 -54.035180 -9.918090 1.574347 -10.535914 -40.427535 5.593673 -172.436062 85.225372 9.237038 5.563420 -61.744862 -23.859164 -87.255223 3.956125 -2.460566 -13.878108 22.634868 -19.011389 
87.710800 84.439407 552.464417 91.254790 0.329388 -169.248099 149.310886 -3.367495 -177.786505 -84.211738 5.186111 -12.891157 79.219218 6.902582 -7.992308 21.454541 0.003114 0.000022 160.789688 -4.552595 -165.286452 -49.697928 0.359878 2.065501 98.573106 -2.017202 -7.718310 21.454553 -0.003092 0.000000 7.482698 0.057964 0.140000 4.952660 0.109978 0.282334 4.634583 0.111545 0.281659 -2.750966 4.059174 2.624668 -9.942209 -3.189688 4.566708 133.271840 -80.036403 45.836317 37.530441 53.732162 60.317284 -53.196696 -9.879037 1.543382 -12.605911 -34.095543 8.171866 -174.991209 86.134921 6.672138 -8.848315 -64.830981 -7.605878 -91.737664 2.227896 -2.538129 -14.109822 23.838250 -16.124676 
92.686012 85.996178 551.771912 90.509057 0.304186 -171.433199 146.518787 -2.222595 -177.851965 -75.720187 5.200503 -12.611651 80.910797 6.975714 -7.429848 21.454555 0.003112 0.000019 165.829849 -5.567703 -168.283184 -44.672374 0.759257 1.948956 97.220674 -2.001179 -7.215720 21.454548 -0.003092 -0.000000 7.299223 -0.161981 0.868986 4.582916 -0.357892 1.730937 4.264965 -0.347572 1.733062 -3.364359 3.987602 2.222641 -7.907982 -3.171887 4.086161 138.061127 -81.084625 40.924909 42.552434 47.855280 67.283920 -56.135781 -10.479322 1.684813 -17.009637 -29.077167 15.120982 176.268044 87.741457 -2.083031 -21.110952 -64.648499 5.756826 -96.343404 0.998622 -2.657068 -14.836913 24.015403 -15.880067 
97.664772 87.931396 551.023499 89.201895 -0.401176 -173.597003 144.980013 -0.780898 -177.053502 -64.108142 3.792778 -10.518820 79.746803 5.415227 -7.887499 21.454565 0.003109 0.000016 170.215581 -5.512207 -171.846453 -39.351845 1.112529 2.211738 93.136009 -2.339165 -6.261338 21.454553 -0.003092 -0.000000 6.958925 -0.566052 1.609142 3.888693 -1.185154 3.198744 3.571060 -1.165961 3.205830 -3.063594 3.897243 1.879397 -6.597010 -2.658848 3.529590 141.902166 -82.269492 36.964929 45.846306 42.394325 71.218929 -59.981943 -9.056306 1.726752 -17.934907 -27.724346 15.947187 143.714447 88.703817 -34.669586 -26.544415 -62.179460 12.567659 -100.573190 -0.051013 -2.771837 -15.314636 22.518198 -15.768936 
102.766502 89.680649 550.314575 88.139097 -1.170729 -174.823801 145.189850 0.592102 -176.597669 -50.402244 3.049291 -7.622074 76.397196 2.830306 -9.274953 21.454562 0.003106 0.000017 174.397706 -4.873902 -173.038143 -34.604279 0.692227 1.918264 87.541879 -2.252650 -5.056314 21.454555 -0.003092 0.000000 6.658114 -0.939808 2.166751 3.267417 -1.939385 4.307131 2.950100 -1.913499 4.318733 -3.012692 3.425481 1.657646 -5.138281 -1.309125 2.810651 144.830377 -83.069813 33.957679 48.734534 37.350975 73.627964 -63.881359 -7.524444 1.768772 -17.805502 -29.328347 14.306838 103.266054 89.167956 -75.092650 -27.124423 -59.352131 13.976196 -103.701608 -0.488104 -2.879776 -14.979973 21.200634 -15.798195 
107.835503 91.054268 549.882019 87.203723 -1.575865 -175.535288 146.110983 1.440399 -176.135511 -36.866704 2.016806 -4.825838 71.872277 1.026545 -7.681215 21.454562 0.003108 0.000018 177.870912 -4.423906 -173.626510 -30.897580 0.465023 1.561671 81.121808 -2.069775 -3.988938 21.454545 -0.003092 -0.000000 6.361128 -1.149409 2.525215 2.658325 -2.355198 5.024984 2.341273 -2.324984 5.039067 -3.453481 2.346549 1.692652 -2.903227 0.334939 2.178970 150.612160 -83.061097 28.129861 51.565906 33.175977 74.652417 -67.206323 -7.123340 1.870931 -18.534080 -30.772837 13.948403 60.749512 89.063508 -117.583633 -25.364054 -56.892966 13.038562 -106.216299 -1.064483 -2.950227 -12.772039 19.973358 -15.483988 
112.745903 91.769958 549.453125 86.332935 -1.893159 -176.260408 147.279369 2.163498 -176.530365 -25.973085 1.277123 -3.941485 66.926551 -1.009708 -10.610041 21.454557 0.003107 0.000018 -179.966797 -3.463898 -172.392581 -29.883881 0.077576 0.096567 76.176185 -0.958871 -2.970674 21.454563 -0.003091 -0.000001 6.091246 -1.346495 2.789658 2.103775 -2.741897 5.556688 1.786915 -2.708479 5.573081 -3.855562 3.024939 1.394370 -1.900257 0.362111 2.050439 155.742247 -83.859977 22.910893 54.325354 31.176839 74.685667 -69.785108 -6.677272 1.943547 -18.485456 -31.601048 14.591016 55.347232 89.329435 -122.965248 -22.548410 -54.477742 10.250023 -107.932097 -1.399034 -3.001938 -11.573029 19.706397 -13.095260 
